<svg width="285" height="48" viewBox="0 0 285 48" fill="none" xmlns="http://www.w3.org/2000/svg">
<path d="M18.6124 16.4876C22.0846 10.5568 25.1126 6.28666 27.6562 3.79572C30.2401 1.26524 32.7433 0 35.2061 0C36.7807 0 38.0727 0.474465 39.0013 1.38385C39.9703 2.29325 40.4547 3.51895 40.4547 5.06096C40.4547 6.6425 39.2839 10.9522 36.9018 17.9506C36.3366 19.7298 35.8521 21.1137 35.5291 22.1021C35.2869 22.8929 34.9235 23.9605 34.439 25.3443C33.0663 29.2982 32.3799 31.7891 32.3799 32.7776C32.3799 33.8847 32.7029 34.6359 33.3893 35.1104C34.0756 35.6244 35.2869 35.9012 36.9422 35.9802L35.9329 39.341H35.0042C32.0569 39.341 29.8364 38.7875 28.2618 37.6804C26.7276 36.5733 25.9605 34.9522 25.9605 32.7776C25.9605 30.8797 27.1717 26.7677 29.5134 20.5206C30.3612 18.3064 30.9669 16.5667 31.411 15.3015C32.2588 13.0478 32.8644 11.2685 33.2278 10.0428C33.5508 8.77759 33.7527 7.82867 33.7527 7.19605C33.7527 6.68204 33.6315 6.32619 33.4297 6.08896C33.1874 5.81219 32.8644 5.69357 32.4203 5.69357C31.734 5.69357 30.8861 6.16804 29.8768 7.03789C28.8674 7.90774 27.6562 9.2916 26.2431 11.1104C24.1436 13.8386 22.2461 16.5272 20.51 19.2554C18.7739 21.9835 17.3204 24.514 16.1496 26.8863C14.4135 30.3657 12.8793 33.8451 11.5873 37.4432C11.2643 38.2735 11.0625 38.7084 11.0221 38.7875C10.8202 39.0643 10.3761 39.3015 9.77051 39.4596C9.1649 39.6178 8.39779 39.7364 7.50956 39.7364C6.58096 39.7364 5.93498 39.6178 5.57161 39.4596C5.20824 39.2619 5.04675 38.9456 5.04675 38.5107C5.04675 37.9967 5.61198 36.4942 6.74246 33.9638C7.34807 32.6985 7.79218 31.71 8.15555 30.9193C10.1339 26.3328 11.7488 22.0626 12.8793 18.1483C14.0501 14.1944 14.6558 11.229 14.6558 9.17298C14.6558 8.0659 14.3731 7.23558 13.8483 6.60297C13.283 6.00988 12.5563 5.69357 11.5873 5.69357C9.97238 5.69357 8.51891 6.68204 7.22694 8.65898C5.93498 10.5964 5.28899 12.8896 5.28899 15.4992C5.28899 16.3295 5.36974 17.1598 5.57161 17.9901C5.73311 18.8204 5.97535 19.6903 6.33872 20.5997C6.0561 20.7974 5.77348 20.9555 5.45049 21.0346C5.08712 21.1137 4.76413 21.1532 4.36039 21.1532C2.9473 21.1532 1.8572 20.6392 1.13047 19.5717C0.363366 18.5437 0 17.0016 0 14.9852C0 10.9522 1.25159 7.51236 3.75478 4.58649C6.25797 1.66063 9.1649 0.197694 12.5563 0.197694C14.8173 0.197694 16.6745 0.948929 18.0472 2.4514C19.4199 3.95387 20.1062 5.97035 20.1062 8.46128C20.1062 9.48929 19.9851 10.6359 19.7429 11.9407C19.5006 13.2059 19.1373 14.7479 18.6124 16.4876ZM60.7629 20.7578C60.3187 20.402 59.8343 20.1647 59.3901 19.9671C58.946 19.8089 58.5019 19.7298 58.0174 19.7298C57.0081 19.7298 55.8372 20.1647 54.5453 21.0346C53.2533 21.8649 52.0017 23.0115 50.7905 24.514C49.7004 25.8583 48.8122 27.2817 48.1662 28.8237C47.5606 30.3262 47.2376 31.6705 47.2376 32.7776C47.2376 33.6079 47.3587 34.201 47.6413 34.5964C47.9643 34.9918 48.4084 35.1895 48.9737 35.1895C50.6694 35.1895 52.4862 33.9638 54.5049 31.5519C56.5236 29.1005 58.5827 25.5025 60.7629 20.7578ZM58.1385 30.2867C56.3217 33.4498 54.5049 35.7825 52.7284 37.2455C50.9116 38.7084 49.014 39.4596 46.955 39.4596C45.986 39.4596 45.1381 39.341 44.4114 39.0643C43.6847 38.7875 43.1194 38.3921 42.7157 37.8781C41.8275 38.313 40.8585 38.6689 39.7684 38.9061C38.6783 39.1829 37.3863 39.3015 35.9329 39.341L36.9826 35.9802C37.9112 35.9012 38.759 35.8221 39.4858 35.6244C40.2125 35.4267 40.8989 35.1895 41.5045 34.8336C41.4237 34.4778 41.3833 34.1219 41.343 33.7661C41.3026 33.3707 41.3026 32.9753 41.3026 32.5404C41.3026 31.1565 41.5852 29.6145 42.2312 27.9934C42.8368 26.3328 43.6847 24.7117 44.8151 23.1301C46.5108 20.7183 48.4084 18.8995 50.4675 17.6343C52.5669 16.369 54.7068 15.7364 56.9273 15.7364C58.0174 15.7364 58.9864 15.8946 59.7939 16.2109C60.6014 16.5272 61.3685 17.0412 62.0548 17.7133L62.4182 16.6063C62.6604 15.8946 62.8623 15.4596 63.1045 15.3015C63.3064 15.1038 63.6294 14.9852 64.0735 14.9852C65.2444 14.9852 66.2941 15.1829 67.142 15.5783C68.0302 16.0132 68.4743 16.4481 68.4743 17.0016C68.4743 17.1598 68.1109 17.9506 67.3842 19.374C66.6171 20.7578 65.9711 22.1021 65.4462 23.3674C64.3158 25.8979 63.4679 28.0725 62.8623 29.8517C62.2971 31.6705 62.0145 33.0544 62.0145 34.0033C62.0145 34.6755 62.2163 35.1499 62.6604 35.3871C63.1045 35.6639 64.0735 35.8616 65.5674 35.9802L64.5984 39.341H64.1139C61.4492 39.341 59.5516 39.1038 58.4615 38.5107C57.3714 37.9967 56.8062 37.0478 56.8062 35.7035C56.8062 35.1499 56.9273 34.4382 57.1292 33.5684C57.3311 32.6985 57.6944 31.631 58.1385 30.2867ZM64.5984 39.341L65.5674 35.9802C67.5861 35.9012 69.2818 34.7941 70.7352 32.6985C72.1483 30.5634 73.4807 27.084 74.7726 22.2603C74.9341 21.4695 75.1764 20.4811 75.4186 19.2949C75.9435 16.7644 77.6392 15.4992 80.4654 15.4992C81.1517 15.4992 81.6362 15.6178 81.9996 15.8155C82.3629 16.0132 82.5244 16.29 82.5244 16.6458C82.5244 17.1598 82.2418 18.1483 81.6362 19.5717C81.071 21.0346 80.6269 22.1812 80.3846 22.972L77.9218 30.2471L77.8411 30.5634C77.1951 32.3031 76.9125 33.4498 76.9125 33.9638C76.9125 34.6755 77.1547 35.1499 77.6392 35.4267C78.0833 35.7035 79.0927 35.9012 80.5461 35.9802L79.5771 39.341H78.6889C76.5087 39.341 74.8534 39.0643 73.7229 38.5107C72.6328 37.9572 71.9868 37.0478 71.785 35.8221C70.7352 36.9687 69.6855 37.799 68.5147 38.3921C67.3438 38.9852 66.0115 39.3015 64.5984 39.341ZM81.8785 7.8682C80.9095 7.8682 80.1424 7.59143 79.6175 7.07743C79.0523 6.52389 78.81 5.81219 78.81 4.82372C78.81 3.55848 79.2138 2.49094 79.9809 1.66063C80.7884 0.790774 81.717 0.355848 82.8474 0.355848C83.7357 0.355848 84.5028 0.632619 85.1084 1.2257C85.6736 1.81878 85.9966 2.57002 85.9966 3.47941C85.9966 4.74465 85.5929 5.77265 84.8258 6.60297C84.0183 7.43328 83.0493 7.8682 81.8785 7.8682ZM79.5771 39.341L80.5865 35.9802C81.4747 35.9802 82.4033 35.7035 83.4127 35.1895C84.422 34.6755 85.5525 33.8847 86.8445 32.7776C87.3693 28.9819 88.1768 25.0675 89.1861 21.0346C90.1551 17.0016 91.3663 13.0082 92.6987 9.05437C93.8292 5.77265 94.8789 3.51895 95.8479 2.29325C96.8572 1.02801 97.9877 0.395387 99.2796 0.395387C100.128 0.395387 100.814 0.751236 101.379 1.42339C101.944 2.09555 102.227 2.9654 102.227 3.99341C102.227 5.29819 101.702 6.95881 100.693 8.97529C99.7238 10.9918 98.351 13.0478 96.6553 15.1038C95.323 19.2554 94.2733 23.0511 93.4658 26.4909C92.6987 29.9703 92.2949 32.2636 92.2949 33.4102C92.2949 34.3196 92.4968 34.9522 92.9813 35.3871C93.4254 35.7825 94.1925 35.9802 95.2826 35.9802L94.2733 39.341H93.708C91.7701 39.341 90.2762 39.1038 89.2265 38.5502C88.1768 38.0362 87.4904 37.2059 87.1674 36.0593C86.0774 37.0873 84.8661 37.8781 83.5742 38.4316C82.2822 38.9852 80.9499 39.3015 79.5771 39.341ZM130.691 29.9703C128.874 36.4547 126.936 41.0807 124.958 43.8484C122.979 46.6161 120.637 48 117.892 48C115.914 48 114.339 47.1697 113.209 45.5486C112.078 43.9275 111.513 41.6738 111.513 38.7875C111.513 35.1104 112.361 30.8007 114.137 25.8188C115.873 20.8764 118.175 16.29 121.041 12.1384C123.787 8.10544 126.694 5.10049 129.762 3.04448C132.83 1.02801 136.02 0 139.371 0C142.48 0 144.983 0.988468 146.759 3.00494C148.576 4.98188 149.505 7.71005 149.505 11.1895C149.505 13.0873 149.222 15.0247 148.657 17.0412C148.092 19.0577 147.284 21.0346 146.235 22.9325C144.862 25.4234 143.207 27.3213 141.309 28.626C139.371 29.9308 137.272 30.5634 134.97 30.5634C134.486 30.5634 133.88 30.5239 133.153 30.4053C132.467 30.3262 131.619 30.168 130.691 29.9703ZM131.538 25.8583C131.74 25.8583 131.902 25.8979 132.063 25.8979C132.225 25.8979 132.427 25.8979 132.669 25.8979C135.293 25.8979 137.554 24.4745 139.452 21.5881C141.39 18.7018 142.359 15.2619 142.359 11.2685C142.359 9.17298 141.995 7.59143 141.269 6.56343C140.542 5.53542 139.492 5.02142 138.039 5.02142C136.545 5.02142 134.849 5.69357 132.911 6.95881C130.973 8.26359 129.156 10.0033 127.42 12.1779C126.088 13.8386 124.877 15.7364 123.706 17.8715C122.575 19.9671 121.526 22.3394 120.557 24.9489C119.467 27.7562 118.619 30.3262 118.054 32.659C117.448 34.9918 117.165 36.8896 117.165 38.2735C117.165 39.341 117.286 40.1713 117.569 40.6853C117.892 41.2389 118.296 41.5157 118.861 41.5157C120.314 41.5157 121.687 39.4596 123.02 35.3476C124.352 31.196 125.28 25.8188 125.805 19.1763C125.846 19.0181 125.846 18.8204 125.886 18.5437C126.007 17.0016 126.29 16.0132 126.734 15.5783C127.259 15.0247 128.026 14.4712 128.995 13.9572C130.004 13.4432 130.691 13.2059 131.014 13.2059C131.498 13.2059 131.781 13.4036 131.942 13.8386C132.104 14.2339 132.184 15.341 132.184 17.1203V17.8715C132.184 19.1763 132.104 20.4811 132.023 21.7858C131.902 23.1301 131.74 24.4745 131.538 25.8583ZM167.027 20.7578C166.583 20.402 166.139 20.1647 165.654 19.9671C165.21 19.8089 164.766 19.7298 164.282 19.7298C163.272 19.7298 162.142 20.1647 160.81 21.0346C159.518 21.8649 158.266 23.0115 157.055 24.514C155.965 25.8583 155.117 27.2817 154.471 28.8237C153.825 30.3262 153.502 31.6705 153.502 32.7776C153.502 33.6079 153.663 34.201 153.946 34.5964C154.229 34.9918 154.673 35.1895 155.278 35.1895C156.934 35.1895 158.791 33.9638 160.769 31.5519C162.788 29.1005 164.887 25.5025 167.027 20.7578ZM164.443 30.2867C162.586 33.4498 160.81 35.7825 158.993 37.2455C157.216 38.7084 155.278 39.4596 153.219 39.4596C152.25 39.4596 151.402 39.341 150.676 39.0643C149.949 38.7875 149.384 38.3921 148.98 37.8781C148.132 38.313 147.163 38.6689 146.073 38.9061C144.983 39.1829 143.691 39.3015 142.197 39.341L143.247 35.9802C144.176 35.9012 145.023 35.8221 145.75 35.6244C146.517 35.4267 147.163 35.1895 147.769 34.8336C147.728 34.4778 147.648 34.1219 147.607 33.7661C147.607 33.3707 147.567 32.9753 147.567 32.5404C147.567 31.1565 147.89 29.6145 148.496 27.9934C149.101 26.3328 149.949 24.7117 151.079 23.1301C152.775 20.7183 154.673 18.8995 156.772 17.6343C158.831 16.369 160.971 15.7364 163.192 15.7364C164.322 15.7364 165.251 15.8946 166.058 16.2109C166.866 16.5272 167.633 17.0412 168.36 17.7133L168.723 16.6063C168.925 15.8946 169.167 15.4596 169.369 15.3015C169.571 15.1038 169.894 14.9852 170.338 14.9852C171.509 14.9852 172.558 15.1829 173.447 15.5783C174.295 16.0132 174.739 16.4481 174.739 17.0016C174.739 17.1598 174.375 17.9506 173.649 19.374C172.922 20.7578 172.276 22.1021 171.711 23.3674C170.58 25.8979 169.732 28.0725 169.167 29.8517C168.602 31.6705 168.279 33.0544 168.279 34.0033C168.279 34.6755 168.521 35.1499 168.925 35.3871C169.369 35.6639 170.338 35.8616 171.872 35.9802L170.863 39.341H170.378C167.714 39.341 165.816 39.1038 164.726 38.5107C163.636 37.9967 163.111 37.0478 163.111 35.7035C163.111 35.1499 163.192 34.4382 163.394 33.5684C163.636 32.6985 163.959 31.631 164.443 30.2867ZM170.822 39.341L171.791 35.9802C173.931 35.6244 175.869 34.201 177.605 31.7496C179.382 29.2586 181.4 24.9885 183.702 18.86C183.338 18.4646 183.015 18.0297 182.854 17.5552C182.652 17.0807 182.571 16.5667 182.571 15.9736C182.571 14.7479 182.894 13.7595 183.581 12.9687C184.267 12.1779 185.115 11.7825 186.124 11.7825C187.053 11.7825 187.82 12.0198 188.345 12.5338C188.91 13.0082 189.152 13.6804 189.152 14.5107C189.152 14.9456 189.112 15.3015 189.031 15.6573C188.95 15.9736 188.829 16.3295 188.627 16.6853C189.516 17.2389 190.646 17.8715 192.019 18.6227C194.522 19.9275 195.773 21.2718 195.773 22.5766C195.773 23.6837 195.087 25.6211 193.755 28.4283C192.382 31.196 191.696 33.0939 191.696 34.1219C191.696 34.715 191.938 35.1499 192.382 35.3871C192.867 35.6244 194.078 35.8221 196.016 35.9802L195.047 39.341H194.28C191.171 39.341 188.991 39.0247 187.618 38.313C186.286 37.6409 185.599 36.4942 185.599 34.9522C185.599 33.5684 186.245 31.4728 187.537 28.7446C188.829 26.0165 189.475 24.2768 189.475 23.486C189.475 23.1301 189.273 22.7348 188.829 22.3394C188.385 21.944 187.618 21.4695 186.568 20.8369C184.267 27.3213 181.885 31.9868 179.462 34.8336C177.04 37.6804 174.173 39.1829 170.822 39.341ZM195.087 39.341L196.056 35.9802C197.994 35.7825 199.488 35.1499 200.538 34.0824C201.628 33.0148 202.556 31.0379 203.364 28.1516L205.504 20.7183H203.041C202.677 20.7183 202.395 20.6787 202.274 20.5601C202.153 20.4811 202.072 20.3229 202.072 20.0857C202.072 20.0461 202.072 20.0066 202.072 19.9671C202.072 19.888 202.112 19.8089 202.193 19.6507L202.597 18.4646C202.677 18.1483 202.839 17.911 203.122 17.7924C203.364 17.6738 203.848 17.6343 204.575 17.6343H206.473L208.976 9.48929C209.137 9.05437 209.299 8.46128 209.46 7.67051C209.985 5.49588 211.075 4.42834 212.65 4.42834C213.78 4.42834 214.669 4.54695 215.274 4.82372C215.92 5.10049 216.243 5.49588 216.243 6.00988C216.243 6.32619 216.041 6.99835 215.637 7.94728C215.436 8.42175 215.274 8.85667 215.193 9.13344L212.246 17.6343H216.526C216.889 17.6343 217.131 17.6738 217.293 17.7529C217.454 17.8715 217.535 17.9901 217.535 18.1878C217.535 18.2669 217.535 18.346 217.535 18.425C217.535 18.5041 217.495 18.5437 217.495 18.6227L217.051 19.8484C216.97 20.1647 216.768 20.3624 216.485 20.5206C216.203 20.6392 215.759 20.7183 215.072 20.7183H211.277L208.774 28.8237C208.491 29.7331 208.289 30.5239 208.128 31.1565C208.007 31.8287 207.926 32.3822 207.926 32.7776C207.926 33.7265 208.411 34.4778 209.299 35.0313C210.227 35.5453 211.6 35.8616 213.457 35.9802L212.448 39.341H211.842C209.541 39.341 207.643 39.1038 206.109 38.5898C204.575 38.0362 203.485 37.285 202.799 36.257C201.708 37.2059 200.497 37.9176 199.165 38.4712C197.833 38.9852 196.46 39.3015 195.087 39.341ZM218.464 36.8896C217.697 37.6409 216.849 38.2339 215.839 38.6293C214.83 39.0643 213.7 39.3015 212.448 39.341L213.417 35.9802C215.234 35.9012 216.728 35.0708 217.979 33.4893C219.231 31.9077 220.361 29.3773 221.371 25.8583C221.895 24.1582 222.38 22.1417 222.905 19.8089C223.591 16.7249 224.681 15.1433 226.175 15.1433C227.507 15.1433 228.476 15.2224 229.001 15.3806C229.607 15.5387 229.849 15.8155 229.849 16.1713C229.849 16.4876 229.324 17.911 228.275 20.4811C227.225 23.0511 226.296 25.542 225.448 27.9539C228.113 23.7232 230.576 20.6392 232.796 18.7018C234.977 16.7644 237.157 15.7759 239.256 15.7759C240.346 15.7759 241.194 16.0527 241.8 16.6063C242.365 17.1598 242.688 17.9506 242.688 18.9786C242.688 20.0857 241.679 23.0511 239.7 27.8748L239.095 29.4563C238.651 30.4448 238.328 31.3937 238.045 32.3031C237.803 33.173 237.682 33.8056 237.682 34.1614C237.682 34.7941 237.924 35.229 238.408 35.4662C238.893 35.7035 239.822 35.9012 241.235 35.9802L240.266 39.341H239.7C236.874 39.341 234.815 38.9852 233.523 38.2735C232.231 37.5222 231.545 36.3756 231.545 34.7941C231.545 34.0824 231.787 32.9753 232.312 31.4728C232.796 30.0099 233.564 28.0725 234.573 25.7792L234.775 25.3048C235.623 23.4069 236.067 22.2603 236.067 21.9044C236.067 21.5881 235.986 21.3904 235.865 21.2718C235.703 21.1532 235.501 21.0741 235.178 21.0741C234.169 21.0741 232.595 22.2998 230.495 24.8303C228.396 27.3213 226.538 30.3657 224.964 33.9638C224.641 34.6755 224.278 35.5453 223.914 36.6129C223.187 38.5107 221.774 39.4596 219.715 39.4596C219.029 39.4596 218.544 39.4201 218.262 39.2619C218.02 39.1433 217.858 38.9061 217.858 38.5898C217.858 38.4316 217.898 38.2339 218.02 37.9572C218.1 37.6804 218.262 37.3245 218.464 36.8896ZM252.943 31.5519C254.72 30.4053 256.213 28.8633 257.425 26.9259C258.636 25.028 259.241 23.3278 259.241 21.9044C259.241 21.1532 259.08 20.6392 258.717 20.2438C258.353 19.888 257.828 19.6903 257.142 19.6903C255.729 19.6903 254.477 20.4811 253.387 22.1417C252.297 23.7628 251.732 25.6606 251.732 27.7957C251.732 28.626 251.853 29.3377 252.014 29.9308C252.216 30.5239 252.539 31.0774 252.943 31.5519ZM250.319 36.8501C248.663 37.6409 247.008 38.1944 245.353 38.6293C243.657 39.0643 242.002 39.3015 240.306 39.341L241.315 35.9802C242.486 35.9012 243.617 35.743 244.586 35.5058C245.595 35.2685 246.564 34.9522 247.493 34.5568C246.847 33.687 246.362 32.7381 246.079 31.6705C245.756 30.603 245.595 29.3377 245.595 27.9143C245.595 24.5535 246.766 21.6672 249.108 19.1763C251.449 16.7249 254.195 15.4596 257.384 15.4596C259.161 15.4596 260.574 15.9736 261.583 17.0412C262.633 18.0692 263.117 19.4926 263.117 21.3114C263.117 23.2883 262.391 25.4629 260.897 27.8353C259.443 30.2471 257.465 32.3427 255.002 34.1614C255.729 34.7941 256.496 35.2685 257.344 35.5453C258.192 35.8221 259.241 35.9802 260.453 35.9802H260.816L259.807 39.341H259.12C257.223 39.341 255.527 39.1433 254.074 38.7479C252.62 38.313 251.368 37.6804 250.319 36.8501ZM259.766 39.341L260.776 35.9802C262.875 35.6244 264.813 34.201 266.589 31.7496C268.366 29.2586 270.385 24.9885 272.686 18.86C272.282 18.4646 272 18.0297 271.798 17.5552C271.636 17.0807 271.515 16.5667 271.515 15.9736C271.515 14.7479 271.878 13.7595 272.524 12.9687C273.211 12.1779 274.059 11.7825 275.108 11.7825C276.037 11.7825 276.764 12.0198 277.329 12.5338C277.854 13.0082 278.136 13.6804 278.136 14.5107C278.136 14.9456 278.096 15.3015 278.015 15.6573C277.935 15.9736 277.773 16.3295 277.612 16.6853C278.459 17.2389 279.59 17.8715 281.003 18.6227C283.506 19.9275 284.758 21.2718 284.758 22.5766C284.758 23.6837 284.071 25.6211 282.699 28.4283C281.326 31.196 280.64 33.0939 280.64 34.1219C280.64 34.715 280.882 35.1499 281.366 35.3871C281.851 35.6244 283.062 35.8221 285 35.9802L283.991 39.341H283.224C280.155 39.341 277.935 39.0247 276.602 38.313C275.229 37.6409 274.584 36.4942 274.584 34.9522C274.584 33.5684 275.229 31.4728 276.521 28.7446C277.813 26.0165 278.459 24.2768 278.459 23.486C278.459 23.1301 278.217 22.7348 277.773 22.3394C277.329 21.944 276.602 21.4695 275.512 20.8369C273.251 27.3213 270.869 31.9868 268.447 34.8336C266.024 37.6804 263.117 39.1829 259.766 39.341Z" fill="#2B2A29"/>
</svg>
