<svg width="80" height="80" viewBox="0 0 80 80" fill="none" xmlns="http://www.w3.org/2000/svg">
<path d="M9.9999 12.5003V2.50002C9.9999 1.11803 11.1179 0 12.5002 0C13.8819 0 14.9999 1.11803 14.9999 2.50002V12.5003C14.9999 13.8819 13.8819 15 12.5002 15C11.1179 15.0001 9.9999 13.8819 9.9999 12.5003ZM52.5003 15.0001C53.8817 15.0001 55.0003 13.8821 55.0003 12.5004V2.50002C55.0003 1.11803 53.8817 0 52.5003 0C51.1183 0 49.9995 1.11803 49.9995 2.50002V12.5003C49.9995 13.8819 51.1183 15.0001 52.5003 15.0001ZM79.9997 59.9995C79.9997 71.0456 71.0449 80.0002 59.9997 80.0002C48.9553 80.0002 39.9999 71.0456 39.9999 59.9995C39.9999 48.9551 48.9552 40 59.9997 40C71.0449 40 79.9997 48.9549 79.9997 59.9995ZM75.0003 59.9995C75.0003 51.7292 68.2717 44.9997 59.9999 44.9997C51.7287 44.9997 45.0001 51.729 45.0001 59.9995C45.0001 68.2715 51.7287 75 59.9999 75C68.2717 75 75.0003 68.2715 75.0003 59.9995ZM20.0001 30.0001H9.9999V40H20.0001V30.0001ZM9.9999 55.0001H20.0001V44.9997H9.9999V55.0001ZM24.9998 40H35.0002V30.0001H24.9998V40ZM24.9998 55.0001H35.0002V44.9997H24.9998V55.0001ZM5.0002 59.5024V24.9999H59.9999V35.0001H65.0001V15.4984C65.0001 12.4612 62.5777 9.99992 59.585 9.99992H57.4999V12.5004C57.4999 15.254 55.2582 17.5003 52.5005 17.5003C49.7419 17.5003 47.5005 15.254 47.5005 12.5004V9.99992H17.4998V12.5004C17.4998 15.254 15.2586 17.5003 12.5004 17.5003C9.74154 17.5003 7.50021 15.254 7.50021 12.5004V9.99992H5.4175C2.42467 9.99992 0 12.4612 0 15.4984V59.5026C0 62.5297 2.42467 65.0006 5.4175 65.0006H35.0002V59.9997H5.4175C5.19096 59.9995 5.0002 59.7656 5.0002 59.5024ZM49.9995 40V30.0001H40.0001V40H49.9995ZM67.4999 59.9995H59.9997V52.4993C59.9997 51.1181 58.8817 50.0001 57.4997 50.0001C56.1177 50.0001 55.0003 51.1181 55.0003 52.4993V62.5004C55.0003 63.8817 56.1177 65.0004 57.4997 65.0004H67.4999C68.8819 65.0004 69.9999 63.8817 69.9999 62.5004C69.9999 61.1184 68.8819 59.9995 67.4999 59.9995Z" fill="#6645C5"/>
</svg>
