<svg width="23" height="23" viewBox="0 0 23 23" fill="none" xmlns="http://www.w3.org/2000/svg">
<path d="M22.8011 21.8271L17.2105 16.2377C18.7101 14.514 19.6181 12.265 19.6181 9.80687C19.6181 4.39601 15.216 0 9.80905 0C4.39698 0 0 4.40111 0 9.80687C0 15.2126 4.40208 19.6137 9.80905 19.6137C12.2677 19.6137 14.5172 18.706 16.2413 17.2067L21.8319 22.796C21.9645 22.9286 22.143 23 22.3165 23C22.4899 23 22.6684 22.9337 22.8011 22.796C23.0663 22.5308 23.0663 22.0922 22.8011 21.8271ZM1.37214 9.80687C1.37214 5.15588 5.15702 1.37694 9.80395 1.37694C14.456 1.37694 18.2358 5.16098 18.2358 9.80687C18.2358 14.4528 14.456 18.2419 9.80395 18.2419C5.15702 18.2419 1.37214 14.4579 1.37214 9.80687Z" fill="black"/>
</svg>
