<svg width="80" height="80" viewBox="0 0 80 80" fill="none" xmlns="http://www.w3.org/2000/svg">
<path d="M68.2844 51.7156C63.9277 47.3591 58.742 44.1339 53.0842 42.1816C59.1439 38.008 63.125 31.0231 63.125 23.125C63.125 10.3739 52.7511 0 40 0C27.2489 0 16.875 10.3739 16.875 23.125C16.875 31.0231 20.8561 38.008 26.9159 42.1816C21.2581 44.1339 16.0725 47.3591 11.7158 51.7156C4.16078 59.2708 0 69.3156 0 80H6.25C6.25 61.3902 21.3902 46.25 40 46.25C58.6098 46.25 73.75 61.3902 73.75 80H80C80 69.3156 75.8392 59.2708 68.2844 51.7156ZM40 40C30.6952 40 23.125 32.43 23.125 23.125C23.125 13.82 30.6952 6.25 40 6.25C49.3048 6.25 56.875 13.82 56.875 23.125C56.875 32.43 49.3048 40 40 40Z" fill="#6645C5"/>
</svg>
