<svg width="80" height="80" viewBox="0 0 80 80" fill="none" xmlns="http://www.w3.org/2000/svg">
<path fill-rule="evenodd" clip-rule="evenodd" d="M4.13043 4.14734H57.6087V16.8076H61.6304V3.7108C61.6304 1.74627 60 0 57.9348 0H3.69565C1.63044 0 0 1.74627 0 3.7108V76.2892C0 78.3629 1.63044 80 3.69565 80H41.5217C40 80 38.8043 78.7995 38.8043 77.2715V75.9618H4.13043V4.14734ZM47.8261 25.1023H77.0652V77.0532H47.8261V25.1023ZM47.6087 22.1555H77.3913C78.8043 22.1555 80 23.3561 80 24.884V77.2715C80 78.7995 78.8043 80 77.3913 80H47.6087C46.087 80 44.8913 78.7995 44.8913 77.2715V24.884C44.8913 23.3561 46.087 22.1555 47.6087 22.1555ZM30.8696 65.4843C32.8261 65.4843 34.4565 67.1214 34.4565 69.086C34.4565 71.0505 32.8261 72.6876 30.8696 72.6876C28.8043 72.6876 27.1739 71.0505 27.1739 69.086C27.1739 67.1214 28.8043 65.4843 30.8696 65.4843ZM62.5 65.9209C64.3478 65.9209 65.8696 67.3397 65.8696 69.1951C65.8696 71.1596 64.3478 72.5784 62.5 72.5784C60.6522 72.5784 59.1304 71.1596 59.1304 69.1951C59.1304 67.3397 60.6522 65.9209 62.5 65.9209Z" fill="#6645C5"/>
</svg>
