<svg width="90" height="80" viewBox="0 0 90 80" fill="none" xmlns="http://www.w3.org/2000/svg">
<path d="M66.1301 11.5308C65.4434 12.2236 65.4434 13.3454 66.1301 14.0361C66.816 14.7289 67.9304 14.7289 68.6157 14.0361C69.303 13.3454 69.303 12.2236 68.6157 11.5308C67.9304 10.8401 66.816 10.8401 66.1301 11.5308Z" fill="#6645C5"/>
<path d="M20.1414 12.7835C19.454 13.4762 19.454 14.5981 20.1414 15.2888C20.8273 15.9816 21.9417 15.9816 22.627 15.2888C23.3143 14.5981 23.3143 13.4762 22.627 12.7835C21.9417 12.0928 20.8273 12.0928 20.1414 12.7835Z" fill="#6645C5"/>
<path d="M88.4544 16.5906L73.5397 1.55796C71.4791 -0.518973 68.1441 -0.519665 66.0828 1.55796L57.8355 9.87053C53.6723 8.37356 48.9908 9.2525 45.6338 12.189C41.3175 10.0955 36.2851 10.0892 31.9654 12.1724L23.9172 4.03837C21.8566 1.96144 18.5216 1.96075 16.4603 4.03837L1.54564 19.071C-0.517044 21.1507 -0.512924 24.5122 1.54427 26.5856C1.73447 26.778 9.93919 35.0698 10.1981 35.3314C9.81285 38.0686 10.7199 40.8729 12.6823 42.8509L10.1974 45.3562C7.45148 48.1232 7.4501 52.6099 10.1981 55.3796C11.6194 56.8108 13.5709 57.5624 15.6116 57.4344C15.4832 59.5016 16.2282 61.4554 17.655 62.8935C19.0469 64.2978 20.9702 65.086 23.0692 64.9552C22.9415 67.0391 23.6989 68.9852 25.112 70.4116C26.5196 71.8303 28.4484 72.6013 30.5255 72.4726C30.3985 74.5571 31.1565 76.504 32.571 77.9296C35.3121 80.6904 39.7726 80.6904 42.515 77.9283L45 75.4229L47.4857 77.9296C50.2274 80.6904 54.6872 80.6897 57.429 77.929C58.9108 76.4354 59.5898 74.4353 59.4704 72.4761C61.713 72.6249 63.8388 71.6892 65.278 69.9832C66.4639 68.5797 66.972 66.7588 66.8298 64.9476C68.931 65.1082 70.9044 64.3462 72.3436 62.8949C73.7684 61.4595 74.5161 59.5058 74.3884 57.4337C76.4291 57.5617 78.382 56.8088 79.8026 55.3782C82.5417 52.6148 82.5417 48.119 79.8019 45.3555L78.4698 44.0136C80.9267 40.6999 81.5913 36.3322 80.2071 32.4192L88.4537 24.1066C90.515 22.029 90.5157 18.6682 88.4544 16.5906ZM12.6837 52.8736C11.3118 51.4901 11.3104 49.2457 12.6837 47.8616C15.352 45.1714 17.4717 43.035 20.1414 40.3442C21.5119 38.9635 23.7415 38.9628 25.112 40.3442C26.475 41.718 26.4977 43.9603 25.1141 45.3541C25.1134 45.3548 25.1134 45.3548 25.1127 45.3555L17.6564 52.8729C16.2852 54.2536 14.0543 54.2536 12.6837 52.8736ZM20.1421 60.3889C18.7674 59.0033 18.7667 56.7659 20.1414 55.3796C20.1414 55.3789 20.1414 55.3789 20.1421 55.3789L27.5977 47.8622C28.9689 46.4815 31.1998 46.4815 32.571 47.8616C33.9484 49.2499 33.9429 51.4908 32.571 52.8729L25.112 60.3896C23.7394 61.7744 21.516 61.7744 20.1421 60.3889ZM27.599 67.907C26.2244 66.5186 26.2278 64.2798 27.5977 62.8949C27.5983 62.8949 27.5983 62.8949 27.5983 62.8942L35.0574 55.3782C36.4286 53.9968 38.6588 53.9975 40.028 55.3775C41.4027 56.7652 41.4006 59.0033 40.0294 60.3882C40.0294 60.3882 40.0294 60.3882 40.0287 60.3889C40.0287 60.3889 40.0287 60.3889 40.028 60.3896L32.5703 67.9063C31.195 69.2925 28.9716 69.2897 27.599 67.907ZM40.0294 75.4229C38.6581 76.8036 36.4272 76.8036 35.0567 75.4236C33.6827 74.0388 33.6813 71.7985 35.056 70.4123L42.513 62.8956C42.5137 62.8956 42.5143 62.8949 42.515 62.8942C43.8876 61.5107 46.1124 61.5101 47.4857 62.8942C48.8596 64.2791 48.8603 66.52 47.4857 67.9063C44.9691 70.4434 42.7993 72.6304 40.0294 75.4229ZM54.944 75.4229C53.5728 76.8036 51.3419 76.8036 49.972 75.4236L47.4863 72.9169L49.9713 70.4116C50.8585 69.5174 51.4778 68.426 51.7923 67.2356L54.9433 70.4116C56.3145 71.7937 56.3145 74.0415 54.944 75.4229ZM77.3177 52.8729C75.9457 54.2536 73.7148 54.2536 72.345 52.8736L64.888 45.3562C64.202 44.6641 63.089 44.6648 62.4023 45.3555C61.7157 46.0476 61.7157 47.1695 62.4017 47.8616L69.8593 55.3796C71.2299 56.7596 71.2367 59.0006 69.8579 60.3896C68.4895 61.7696 66.2682 61.7807 64.8818 60.3827L64.7129 60.2138L57.4297 52.8736C56.743 52.1815 55.63 52.1815 54.9433 52.8736C54.2567 53.565 54.2567 54.6868 54.9433 55.3789L62.2163 62.7087C63.569 64.1573 63.7392 66.3394 62.6008 67.6869C61.6491 68.815 60.1412 69.2316 58.7576 68.7485C57.4441 68.289 57.6041 67.9284 49.9713 60.3889C48.5815 58.9881 46.6596 58.1985 44.5578 58.3293C44.6848 56.2461 43.9275 54.3 42.5143 52.8736C41.0319 51.3787 39.0454 50.6942 37.1008 50.8167C37.2285 48.7488 36.4842 46.7951 35.056 45.3555C33.5728 43.862 31.5871 43.1782 29.6425 43.3007C29.7702 41.2328 29.0259 39.2777 27.5983 37.8389C24.8573 35.0761 20.3968 35.0761 17.6557 37.8389L15.1687 40.3456C13.8414 39.0078 13.3189 37.0395 13.805 35.2083C13.9664 34.5985 13.794 33.9473 13.3511 33.4995L8.9621 29.064L17.6564 20.3009C18.3424 19.6095 18.3424 18.4876 17.6564 17.7955C16.9698 17.1035 15.8567 17.1035 15.1707 17.7955L6.47987 26.5552L4.03198 24.0817C3.34465 23.3889 3.34465 22.2691 4.03198 21.5764L18.9466 6.5437C19.6374 5.84747 20.7491 5.85577 21.4302 6.54232L30.3964 15.6044C30.9629 16.1768 31.8439 16.2903 32.5353 15.8785C35.7104 13.9877 39.5199 13.6562 42.9188 14.8805L33.8132 24.0589C31.0741 26.8216 31.0741 31.3174 33.8139 34.0816C36.5556 36.8423 41.0154 36.8423 43.7579 34.0809L47.4863 30.3229C50.9203 26.8604 56.4793 26.859 59.9146 30.3236L77.3163 47.8609C78.6861 49.2429 78.6861 51.4922 77.3177 52.8729ZM85.9687 21.6013L82.2876 25.3108L73.5871 16.5429C72.9005 15.8508 71.7874 15.8515 71.1008 16.5429C70.4148 17.2349 70.4148 18.3568 71.1008 19.0489L79.8019 27.8168L76.8913 30.7499C76.3646 31.2814 76.2273 32.0897 76.5486 32.7673C77.8938 35.6034 77.6232 38.913 75.9478 41.4709L62.401 27.8182C57.5931 22.9702 49.8086 22.9688 45 27.8182L41.2722 31.5755C39.901 32.9562 37.6694 32.9562 36.2995 31.5762C34.9297 30.1941 34.9297 27.9456 36.2995 26.5642C38.6918 24.153 43.6054 19.2005 47.4857 15.2888C50.1162 12.6375 54.1365 11.9426 57.4901 13.5579C58.1623 13.8818 58.9643 13.7434 59.4917 13.2126L68.5684 4.06329C69.2551 3.37121 70.3667 3.37051 71.0541 4.06329L85.9687 19.0966C86.654 19.7873 86.6567 20.9071 85.9687 21.6013Z" fill="#6645C5"/>
</svg>
